<svg xmlns="http://www.w3.org/2000/svg" width="24" height="24" viewBox="0 0 24 24">
    <g id="arrow-left">
        <polygon fill-rule="evenodd" points="6.414 13 12.707 19.293 11.293 20.707 2.586 12 11.293 3.293 12.707 4.707 6.414 11 21 11 21 13"/>
    </g>
    <g id="arrow-right">
        <polygon fill-rule="evenodd" points="17.586 13 3 13 3 11 17.586 11 11.293 4.707 12.707 3.293 21.414 12 12.707 20.707 11.293 19.293"/>
    </g>
    <g id="rotate-cw">
        <path fill-rule="evenodd" d="M17.8069373,7 C16.4464601,5.07869636 14.3936238,4 12,4 C7.581722,4 4,7.581722 4,12 C4,16.418278 7.581722,20 12,20 C16.418278,20 20,16.418278 20,12 L22,12 C22,17.5228475 17.5228475,22 12,22 C6.4771525,22 2,17.5228475 2,12 C2,6.4771525 6.4771525,2 12,2 C14.8042336,2 17.274893,3.18251178 19,5.27034886 L19,2 L21,2 L21,9 L14,9 L14,7 L17.8069373,7 Z"/>
    </g>
</svg>
